<svg width="24" height="24" viewBox="0 0 24 24" fill="none" xmlns="http://www.w3.org/2000/svg">
<g id="material-symbols:phone-callback-outline-sharp">
<path id="Vector" d="M12.8 11.0001V5.0001H14.8V7.6001L19.8 2.6001L21.2 4.0001L16.2 9.0001H18.8V11.0001H12.8ZM19.95 21.0001C17.8 21.0001 15.7043 20.5251 13.663 19.5751C11.621 18.6251 9.81267 17.3584 8.238 15.7751C6.66267 14.1918 5.396 12.3791 4.438 10.3371C3.47933 8.29576 3 6.2001 3 4.0501V3.5251C3 3.34176 3.01667 3.16676 3.05 3.0001H8.9L9.825 8.0251L6.975 10.9001C7.675 12.1001 8.55433 13.2251 9.613 14.2751C10.671 15.3251 11.8333 16.2334 13.1 17.0001L16 14.1001L21 15.1001V20.9501C20.8333 20.9668 20.6583 20.9794 20.475 20.9881C20.2917 20.9961 20.1167 21.0001 19.95 21.0001ZM6.025 9.0001L7.675 7.3501L7.25 5.0001H5.025C5.10833 5.68343 5.225 6.35843 5.375 7.0251C5.525 7.69176 5.74167 8.3501 6.025 9.0001ZM14.975 17.9501C15.625 18.2334 16.2877 18.4584 16.963 18.6251C17.6377 18.7918 18.3167 18.9001 19 18.9501V16.7501L16.65 16.2751L14.975 17.9501Z" fill="white"/>
</g>
</svg>
